#N canvas 735 22 691 594 10;
#X declare -lib mrpeach;
#X obj 553 309 import mrpeach;
#X obj 105 -193 udpreceive 47121;
#X obj 105 -171 unpackOSC;
#X obj 242 -103 route 1 2 3 4;
#X obj 242 -74 vsl 12 400 0 1 0 0 empty empty empty 0 -9 0 10 -262144
-1 -1 33188 1;
#X obj 267 -74 vsl 12 400 0 1 0 0 empty empty empty 0 -9 0 10 -262144
-1 -1 531 1;
#X obj 294 -74 vsl 12 400 0 1 0 0 empty empty empty 0 -9 0 10 -262144
-1 -1 35154 1;
#X obj 323 -74 vsl 12 400 0 1 0 0 empty empty empty 0 -9 0 10 -262144
-1 -1 0 1;
#X obj 39 268 route 1 2 3 4 5 6 7 8 9 10;
#X obj 16 313 tgl 15 0 empty empty empty 17 7 0 10 -262144 -1 -1 1
1;
#X obj 36 313 tgl 15 0 empty empty empty 17 7 0 10 -262144 -1 -1 0
1;
#X obj 56 313 tgl 15 0 empty empty empty 17 7 0 10 -262144 -1 -1 1
1;
#X obj 84 313 tgl 15 0 empty empty empty 17 7 0 10 -262144 -1 -1 1
1;
#X obj 104 313 tgl 15 0 empty empty empty 17 7 0 10 -262144 -1 -1 0
1;
#X obj 124 313 tgl 15 0 empty empty empty 17 7 0 10 -262144 -1 -1 1
1;
#X obj 156 313 tgl 15 0 empty empty empty 17 7 0 10 -262144 -1 -1 0
1;
#X obj 176 313 tgl 15 0 empty empty empty 17 7 0 10 -262144 -1 -1 1
1;
#X obj 196 313 tgl 15 0 empty empty empty 17 7 0 10 -262144 -1 -1 1
1;
#X obj 216 313 tgl 15 0 empty empty empty 17 7 0 10 -262144 -1 -1 1
1;
#X obj 105 -140 routeOSC /data/D /data/A;
#X connect 1 0 2 0;
#X connect 2 0 19 0;
#X connect 3 0 4 0;
#X connect 3 1 5 0;
#X connect 3 2 6 0;
#X connect 3 3 7 0;
#X connect 8 0 9 0;
#X connect 8 1 10 0;
#X connect 8 2 11 0;
#X connect 8 3 12 0;
#X connect 8 4 13 0;
#X connect 8 5 14 0;
#X connect 8 6 15 0;
#X connect 8 7 16 0;
#X connect 8 8 17 0;
#X connect 8 9 18 0;
#X connect 19 0 8 0;
#X connect 19 1 3 0;
