#N canvas 892 22 875 266 10;
#X declare -lib mrpeach;
#X obj 54 -211 hsl 512 16 0 1 0 0 empty data-A1 empty -2 -8 0 10 -262144
-1 -1 0 1;
#X obj 54 -190 hsl 512 16 0 1 0 0 empty data-A2 empty -2 -8 0 10 -262144
-1 -1 51100 1;
#X obj 54 -169 hsl 512 16 0 1 0 0 empty data-A3 empty -2 -8 0 10 -262144
-1 -1 0 1;
#X obj 54 -148 hsl 512 16 0 1 0 0 empty data-A4 empty -2 -8 0 10 -262144
-1 -1 0 1;
#X floatatom 571 -211 6 0 0 2 NORM data-A1 -;
#X floatatom 22 -211 4 0 0 0 A1 raw-A1 -;
#X floatatom 22 -191 4 0 0 0 A2 raw-A2 -;
#X floatatom 22 -170 4 0 0 0 A3 raw-A3 -;
#X floatatom 571 -190 6 0 0 0 - data-A2 -;
#X floatatom 571 -169 6 0 0 0 - data-A3 -;
#X floatatom 571 -148 6 0 0 0 - data-A4 -;
#X floatatom 651 -211 3 0 100 2 - smoothingA1 smoothingA1_set;
#X floatatom 651 -190 3 0 100 0 - smoothingA2 smoothingA2_set;
#X floatatom 651 -169 3 0 100 0 - smoothingA3 smoothingA3_set;
#X floatatom 651 -148 3 0 100 0 - smoothingA4 smoothingA4_set;
#X floatatom 617 -211 4 0 2047 2 RES resolutionA1 resolutionA1_set
;
#X floatatom 617 -190 4 0 2047 2 - resolutionA2 resolutionA2_set;
#X floatatom 617 -169 4 0 2047 2 - resolutionA3 resolutionA3_set;
#X floatatom 617 -148 4 0 2047 2 - resolutionA4 resolutionA4_set;
#X obj 787 -211 tgl 15 0 autorangeA1_set autorangeA1 empty 0 -8 0 9
-262144 -1 -1 0 1;
#X obj 787 -190 tgl 15 0 autorangeA2_set autorangeA2 empty 0 -8 0 9
-262144 -1 -1 0 1;
#X obj 787 -169 tgl 15 0 autorangeA3_set autorangeA3 empty 0 -8 0 9
-262144 -1 -1 0 1;
#X obj 787 -148 tgl 15 0 autorangeA4_set autorangeA4 empty 0 -8 0 9
-262144 -1 -1 0 1;
#X floatatom 814 -211 4 0 2047 2 MIN minA1 minA1_set;
#X floatatom 814 -190 4 0 2047 2 - minA2 minA2_set;
#X floatatom 814 -169 4 0 2047 2 - minA3 minA3_set;
#X floatatom 814 -148 4 0 2047 2 - minA4 minA4_set;
#X floatatom 842 -211 4 0 2047 2 MAX maxA1 maxA1_set;
#X floatatom 842 -190 4 0 2047 2 - maxA2 maxA2_set;
#X floatatom 842 -169 4 0 2047 2 - maxA3 maxA3_set;
#X floatatom 842 -148 4 0 2047 2 - maxA4 maxA4_set;
#X obj 746 -211 tgl 16 0 denoiseA1_set denoiseA1 empty 0 -8 0 9 -262144
-1 -1 1 1;
#X obj 746 -190 tgl 15 0 denoiseA2_set denoiseA2 empty 0 -8 0 9 -262144
-1 -1 1 1;
#X obj 746 -169 tgl 15 0 denoiseA3_set denoiseA3 empty 0 -8 0 9 -262144
-1 -1 1 1;
#X obj 746 -148 tgl 15 0 denoiseA4_set denoiseA4 empty 0 -8 0 9 -262144
-1 -1 0 1;
#X obj 687 -209 hradio 10 1 0 4 filterA1_set filterA1 empty 0 -8 0
10 -262144 -1 -1 1;
#X obj 687 -187 hradio 10 1 0 4 filterA2_set filterA2 empty 0 -8 0
10 -262144 -1 -1 1;
#X obj 687 -166 hradio 10 1 0 4 filterA3_set filterA3 empty 0 -8 0
10 -262144 -1 -1 1;
#X obj 687 -145 hradio 10 1 0 4 filterA4_set filterA4 empty 0 -8 0
10 -262144 -1 -1 0;
#X text 687 -228 FILTER;
#X text 644 -228 SMOOTH;
#X text 733 -228 DENOISE;
#X text 781 -228 NORM;
#X obj 570 -121 cnv 15 100 140 empty empty empty 20 12 0 14 -191407
-66577 0;
#X obj 578 -77 bng 32 250 50 0 update update_set empty 0 -14 0 12 -262144
-162280 -162280;
#X floatatom 22 -149 4 0 0 0 A4 raw-A4 -;
#X text 576 -93 UPDATE;
#X symbolatom 577 -114 14 0 0 0 - status _;
#X text 684 -126 comment;
#X obj 676 -121 cnv 15 192 140 empty empty empty 20 12 0 14 -162280
-66577 0;
#N canvas 927 377 738 623 filtern 0;
#X obj 240 40 r filterA1;
#X obj 234 79 select 0 1 2 3;
#X msg 254 139 MEDIAN;
#X msg 274 121 BESSEL1;
#X msg 294 101 BESSEL2;
#X msg 234 168 LOWPASS;
#X symbolatom 100 100 10 0 0 0 - #0-1-recv #0-1-send;
#X obj 234 203 prepend set;
#X obj 356 76 select 0 1 2 3;
#X msg 376 136 MEDIAN;
#X msg 396 118 BESSEL1;
#X msg 416 98 BESSEL2;
#X msg 356 165 LOWPASS;
#X symbolatom 100 116 10 0 0 0 - #0-2-recv #0-2;
#X obj 356 200 prepend set;
#X obj 353 37 r filterA2;
#X obj 488 72 select 0 1 2 3;
#X msg 508 132 MEDIAN;
#X msg 528 114 BESSEL1;
#X msg 548 94 BESSEL2;
#X msg 488 161 LOWPASS;
#X symbolatom 100 132 10 0 0 0 - #0-3-recv #0-3;
#X obj 488 196 prepend set;
#X obj 485 33 r filterA3;
#X obj 615 71 select 0 1 2 3;
#X msg 635 131 MEDIAN;
#X msg 655 113 BESSEL1;
#X msg 675 93 BESSEL2;
#X msg 615 160 LOWPASS;
#X symbolatom 100 149 10 0 0 0 - #0-4-recv #0-4;
#X obj 615 195 prepend set;
#X obj 613 32 r filterA4;
#X obj 234 248 s \$0-1-recv;
#X obj 377 250 s \$0-2-recv;
#X obj 472 245 s \$0-3-recv;
#X obj 594 250 s \$0-4-recv;
#X obj 95 11 loadbang;
#X msg 94 40 0;
#X obj 225 11 r filterA1_set;
#X obj 339 9 r filterA2_set;
#X obj 457 12 r filterA3_set;
#X obj 578 8 r filterA4_set;
#X connect 0 0 1 0;
#X connect 1 0 5 0;
#X connect 1 1 2 0;
#X connect 1 2 3 0;
#X connect 1 3 4 0;
#X connect 2 0 7 0;
#X connect 3 0 7 0;
#X connect 4 0 7 0;
#X connect 5 0 7 0;
#X connect 7 0 32 0;
#X connect 8 0 12 0;
#X connect 8 1 9 0;
#X connect 8 2 10 0;
#X connect 8 3 11 0;
#X connect 9 0 14 0;
#X connect 10 0 14 0;
#X connect 11 0 14 0;
#X connect 12 0 14 0;
#X connect 14 0 33 0;
#X connect 15 0 8 0;
#X connect 16 0 20 0;
#X connect 16 1 17 0;
#X connect 16 2 18 0;
#X connect 16 3 19 0;
#X connect 17 0 22 0;
#X connect 18 0 22 0;
#X connect 19 0 22 0;
#X connect 20 0 22 0;
#X connect 22 0 34 0;
#X connect 23 0 16 0;
#X connect 24 0 28 0;
#X connect 24 1 25 0;
#X connect 24 2 26 0;
#X connect 24 3 27 0;
#X connect 25 0 30 0;
#X connect 26 0 30 0;
#X connect 27 0 30 0;
#X connect 28 0 30 0;
#X connect 30 0 35 0;
#X connect 31 0 24 0;
#X connect 36 0 37 0;
#X connect 37 0 1 0;
#X connect 37 0 8 0;
#X connect 37 0 16 0;
#X connect 37 0 24 0;
#X connect 38 0 1 0;
#X connect 39 0 8 0;
#X connect 40 0 16 0;
#X connect 41 0 24 0;
#X coords 0 -1 1 1 62 65 2 100 100;
#X restore 683 -113 pd filtern;
#N canvas 1013 22 555 518 digitalpins 0;
#X obj 100 100 cnv 15 110 140 empty empty empty 20 12 0 14 -228856
-66577 0;
#X obj 109 108 tgl 30 0 empty empty D1 17 7 0 10 -262144 -1 -1 0 1
;
#X obj 139 108 tgl 30 0 empty empty D2 17 7 0 10 -262144 -1 -1 0 1
;
#X obj 169 108 tgl 30 0 empty empty D3 17 7 0 10 -262144 -1 -1 0 1
;
#X obj 109 137 tgl 30 0 empty empty D4 17 7 0 10 -262144 -1 -1 0 1
;
#X obj 139 137 tgl 30 0 empty empty D5 17 7 0 10 -262144 -1 -1 0 1
;
#X obj 169 137 tgl 30 0 empty empty D6 17 7 0 10 -262144 -1 -1 0 1
;
#X obj 109 166 tgl 30 0 \$0-7 empty D7 17 7 0 10 -262144 -1 -1 0 1
;
#X obj 139 166 tgl 30 0 \$0-8 empty D8 17 7 0 10 -262144 -1 -1 0 1
;
#X obj 169 166 tgl 30 0 \$0-9 empty D9 17 7 0 10 -262144 -1 -1 0 1
;
#X obj 139 196 tgl 30 0 \$0-10 empty D10 10 7 0 10 -262144 -1 -1 0
1;
#X obj 128 -22 route 1 2 3 4 5 6 7 8 9 10;
#X obj 128 -50 r data_digital;
#X connect 11 0 1 0;
#X connect 11 1 2 0;
#X connect 11 2 3 0;
#X connect 11 3 4 0;
#X connect 11 4 5 0;
#X connect 11 5 6 0;
#X connect 11 6 7 0;
#X connect 11 7 8 0;
#X connect 11 8 9 0;
#X connect 11 9 10 0;
#X connect 12 0 11 0;
#X coords 0 -1 1 1 110 140 2 100 100;
#X restore 51 -123 pd digitalpins;
#X obj 579 -21 tgl 32 0 connection connection_set empty 0 -8 0 10 -228856
-262144 -1 1 1;
#X obj 685 -25 tgl 15 0 oscout_enable_set oscout_enable empty 18 8
0 9 -262144 -1 -1 1 1;
#X text 683 -41 OSC out;
#N canvas 1176 399 450 300 _ 0;
#N canvas 228 228 1203 655 OSC-out 0;
#X obj -111 65 sendOSC;
#X msg -86 33 connect localhost 47120;
#X obj -111 -61 r osc;
#X obj -86 16 loadbang;
#X obj 118 212 s osc;
#X obj 118 -97 r smoothingA1_set;
#X msg 118 -53 send /smoothing/set 1 \$1;
#X obj -181 101 r update;
#X obj 129 -28 r smoothingA2_set;
#X msg 129 25 send /smoothing/set 2 \$1;
#X obj 152 50 r smoothingA3_set;
#X msg 152 102 send /smoothing/set 3 \$1;
#X obj 164 130 r smoothingA3_set;
#X msg 164 180 send /smoothing/set 3 \$1;
#X obj 118 -76 speedlim 800;
#X obj 129 -2 speedlim 800;
#X obj 152 75 speedlim 800;
#X obj 164 154 speedlim 800;
#X obj 341 -96 r filterA1_set;
#X msg 341 -75 send /filtertype/set 1 \$1;
#X obj 352 -47 r filterA2_set;
#X obj 375 1 r filterA3_set;
#X obj 387 51 r filterA3_set;
#X msg 387 71 send /filtertype/set 3 \$1;
#X obj -78 -37 tgl 15 0 empty empty empty 17 7 0 10 -262144 -1 -1 1
1;
#X obj -13 296 loadbang;
#X obj -78 -88 r oscout_enable;
#X obj -111 -21 spigot;
#X msg -142 152 \; oscout_enable 0;
#X msg -181 269 \; oscout_enable 1;
#X obj -181 127 t b b b;
#X obj -50 -65 r oscout_enable_set;
#X obj 564 -96 r denoiseA1_set;
#X obj 575 -47 r denoiseA2_set;
#X msg 564 -72 send /denoise/set 1 \$1;
#X msg 575 -25 send /denoise/set 2 \$1;
#X obj 598 1 r denoiseA3_set;
#X msg 598 25 send /denoise/set 3 \$1;
#X obj 610 59 r denoiseA3_set;
#X msg 610 83 send /denoise/set 3 \$1;
#X obj -13 381 delay 2000;
#X obj -183 23 r oscdirect;
#X obj -181 324 r send_osc_and_update;
#X obj -167 349 s osc;
#X msg -181 496 \; update bang;
#X obj -181 474 delay 2000;
#N canvas 1135 454 450 300 min_max 0;
#X msg 241 43 send /analogminval/set 1 \$1;
#X obj 241 21 r minA1_set;
#X msg 251 89 send /analogminval/set 2 \$1;
#X obj 258 111 r minA3_set;
#X obj 251 68 r minA2_set;
#X msg 258 132 send /analogminval/set 3 \$1;
#X obj 269 162 r minA4_set;
#X msg 269 183 send /analogminval/set 4 \$1;
#X obj 17 26 r maxA1_set;
#X msg 17 48 send /analogmaxval/set 1 \$1;
#X obj 28 74 r maxA2_set;
#X msg 28 96 send /analogmaxval/set 2 \$1;
#X obj 35 117 r maxA3_set;
#X msg 35 138 send /analogmaxval/set 3 \$1;
#X obj 46 162 r maxA4_set;
#X msg 46 183 send /analogmaxval/set 4 \$1;
#X obj 241 217 s send_osc_and_update;
#X obj 17 215 s send_osc_and_update;
#X connect 0 0 16 0;
#X connect 1 0 0 0;
#X connect 2 0 16 0;
#X connect 3 0 5 0;
#X connect 4 0 2 0;
#X connect 5 0 16 0;
#X connect 6 0 7 0;
#X connect 7 0 16 0;
#X connect 8 0 9 0;
#X connect 9 0 17 0;
#X connect 10 0 11 0;
#X connect 11 0 17 0;
#X connect 12 0 13 0;
#X connect 13 0 17 0;
#X connect 14 0 15 0;
#X connect 15 0 17 0;
#X restore 117 248 pd min_max;
#X msg 375 23 send /filtertype/set 3 \$1;
#X msg 352 -25 send /filtertype/set 2 \$1;
#X obj 341 115 speedlim 800;
#X obj 341 137 s osc;
#X obj 564 115 speedlim 800;
#X obj 564 137 s osc;
#X obj -162 218 s oscdirect;
#X obj -181 422 t b;
#X obj -181 443 speedlim 2000;
#X obj -168 386 spigot;
#X obj -124 371 tgl 15 0 empty empty empty 17 7 0 10 -262144 -1 -1
1 1;
#X obj -124 350 r oscout_enable;
#X obj 767 117 speedlim 800;
#X obj 767 139 s osc;
#X obj 767 -94 r resolutionA1_set;
#X obj 778 -45 r resolutionA2_set;
#X obj 801 3 r resolutionA3_set;
#X msg 767 -70 send /analogreslution/set 1 \$1;
#X msg 778 -23 send /analogreslution/set 2 \$1;
#X msg 801 27 send /analogreslution/set 3 \$1;
#X msg 813 85 send /denoise/set 4 \$1;
#X obj 813 61 r resolutionA4_set;
#X msg -162 196 send /devinfo/get 47123/0;
#X msg 167 388 send /registerdata 47123;
#X obj 152 318 t;
#X msg 152 410 send /registerui 47123;
#X obj 167 452 s oscdirect;
#X msg 356 309 send /signout 47123;
#X obj 542 288 r connection;
#X obj 542 311 route 0 1;
#X obj 152 288 r signin;
#X msg 532 345 \; signout bang;
#X obj 356 288 r signout;
#X msg 629 345 \; signin bang;
#X obj 205 357 s connection_set;
#X msg 205 335 set 1;
#X msg -13 408 \; update bang \; signin bang;
#X obj 356 330 s oscdirect;
#X msg 85 506 \; update bang;
#X obj 85 484 delay 2000;
#X obj -112 87 r auto_update;
#X obj -112 108 metro 1000;
#X msg 0 319 \; oscout_enable 1 \; auto_update_set set 1;
#X obj -181 249 delay 20;
#X connect 1 0 0 0;
#X connect 2 0 27 0;
#X connect 3 0 1 0;
#X connect 5 0 14 0;
#X connect 6 0 4 0;
#X connect 7 0 30 0;
#X connect 8 0 15 0;
#X connect 9 0 4 0;
#X connect 10 0 16 0;
#X connect 11 0 4 0;
#X connect 12 0 17 0;
#X connect 13 0 4 0;
#X connect 14 0 6 0;
#X connect 15 0 9 0;
#X connect 16 0 11 0;
#X connect 17 0 13 0;
#X connect 18 0 19 0;
#X connect 19 0 49 0;
#X connect 20 0 48 0;
#X connect 21 0 47 0;
#X connect 22 0 23 0;
#X connect 23 0 49 0;
#X connect 24 0 27 1;
#X connect 25 0 89 0;
#X connect 25 0 40 0;
#X connect 26 0 24 0;
#X connect 27 0 0 0;
#X connect 30 0 90 0;
#X connect 30 1 69 0;
#X connect 30 2 28 0;
#X connect 31 0 24 0;
#X connect 32 0 34 0;
#X connect 33 0 35 0;
#X connect 34 0 51 0;
#X connect 35 0 51 0;
#X connect 36 0 37 0;
#X connect 37 0 51 0;
#X connect 38 0 39 0;
#X connect 39 0 51 0;
#X connect 40 0 83 0;
#X connect 41 0 0 0;
#X connect 42 0 43 0;
#X connect 42 0 56 0;
#X connect 45 0 44 0;
#X connect 47 0 49 0;
#X connect 48 0 49 0;
#X connect 49 0 50 0;
#X connect 51 0 52 0;
#X connect 54 0 55 0;
#X connect 55 0 45 0;
#X connect 56 0 54 0;
#X connect 57 0 56 1;
#X connect 58 0 57 0;
#X connect 59 0 60 0;
#X connect 61 0 64 0;
#X connect 62 0 65 0;
#X connect 63 0 66 0;
#X connect 64 0 59 0;
#X connect 65 0 59 0;
#X connect 66 0 59 0;
#X connect 67 0 59 0;
#X connect 68 0 67 0;
#X connect 69 0 53 0;
#X connect 70 0 73 0;
#X connect 71 0 72 0;
#X connect 71 0 86 0;
#X connect 71 1 70 0;
#X connect 71 1 82 0;
#X connect 72 0 73 0;
#X connect 74 0 84 0;
#X connect 75 0 76 0;
#X connect 76 0 78 0;
#X connect 76 1 80 0;
#X connect 77 0 71 0;
#X connect 79 0 74 0;
#X connect 82 0 81 0;
#X connect 86 0 85 0;
#X connect 87 0 88 0;
#X connect 88 0 30 0;
#X connect 90 0 29 0;
#X restore 4 1 pd OSC-out;
#N canvas 435 398 812 476 OSC-in 0;
#X obj 61 -180 unpackOSC;
#X obj 118 97 route 1 2 3 4;
#X obj 175 -27 route A1 A2 A3 A4;
#X obj 199 39 send raw-A2;
#X obj 175 60 send raw-A1;
#X obj 224 18 send raw-A3;
#X obj 249 -3 send raw-A4;
#X obj 118 188 send data-A1;
#X obj 136 164 send data-A2;
#X obj 155 142 send data-A3;
#X obj 174 120 send data-A4;
#X obj 468 -203 import mrpeach;
#N canvas 686 315 454 355 analogpin_route 0;
#X obj 8 6 inlet;
#X obj 65 56 route A1 A2 A3 A4;
#N canvas 592 280 523 542 sendpin 0;
#X obj 58 39 inlet;
#X obj 58 68 unpack f f f f f f f;
#X obj 436 293 inlet;
#X obj 172 294 s;
#X obj 116 353 s;
#X obj 85 399 s;
#X obj 58 452 s;
#X msg 131 330 symbol filterA\$1;
#X msg 100 375 symbol smoothingA\$1;
#X msg 73 428 symbol resolutionA\$1;
#X obj 197 221 s;
#X msg 212 198 symbol autorangeA\$1;
#X obj 214 156 s;
#X msg 229 133 symbol minA\$1;
#X obj 287 107 s;
#X msg 302 84 symbol maxA\$1;
#X msg 186 271 symbol denoiseA\$1;
#X connect 0 0 1 0;
#X connect 1 0 6 0;
#X connect 1 1 5 0;
#X connect 1 2 4 0;
#X connect 1 3 3 0;
#X connect 1 4 10 0;
#X connect 1 5 12 0;
#X connect 1 6 14 0;
#X connect 2 0 16 0;
#X connect 2 0 7 0;
#X connect 2 0 8 0;
#X connect 2 0 9 0;
#X connect 2 0 15 0;
#X connect 2 0 13 0;
#X connect 2 0 11 0;
#X connect 7 0 4 1;
#X connect 8 0 5 1;
#X connect 9 0 6 1;
#X connect 11 0 10 1;
#X connect 13 0 12 1;
#X connect 15 0 14 1;
#X connect 16 0 3 1;
#X restore 65 288 pd sendpin;
#X msg 122 264 1;
#X msg 146 204 2;
#X msg 171 148 3;
#X msg 196 89 4;
#X obj 276 114 loadbang;
#X obj 8 32 zl slice 1;
#N canvas 772 351 523 542 sendpin 0;
#X obj 58 39 inlet;
#X obj 58 68 unpack f f f f f f f;
#X obj 323 348 inlet;
#X obj 172 294 s;
#X obj 116 353 s;
#X obj 85 399 s;
#X obj 58 452 s;
#X msg 130 329 symbol filterA\$1;
#X msg 100 375 symbol smoothingA\$1;
#X msg 73 428 symbol resolutionA\$1;
#X obj 197 231 s;
#X msg 212 208 symbol autorangeA\$1;
#X obj 214 186 s;
#X msg 229 163 symbol minA\$1;
#X obj 257 117 s;
#X msg 271 93 symbol maxA\$1;
#X msg 186 271 symbol denoiseA\$1;
#X connect 0 0 1 0;
#X connect 1 0 6 0;
#X connect 1 1 5 0;
#X connect 1 2 4 0;
#X connect 1 3 3 0;
#X connect 1 4 10 0;
#X connect 1 5 12 0;
#X connect 1 6 14 0;
#X connect 2 0 16 0;
#X connect 2 0 7 0;
#X connect 2 0 8 0;
#X connect 2 0 9 0;
#X connect 2 0 15 0;
#X connect 2 0 13 0;
#X connect 2 0 11 0;
#X connect 7 0 4 1;
#X connect 8 0 5 1;
#X connect 9 0 6 1;
#X connect 11 0 10 1;
#X connect 13 0 12 1;
#X connect 15 0 14 1;
#X connect 16 0 3 1;
#X restore 89 231 pd sendpin;
#N canvas 772 351 523 542 sendpin 0;
#X obj 58 39 inlet;
#X obj 58 68 unpack f f f f f f f;
#X obj 323 348 inlet;
#X obj 172 294 s;
#X obj 116 353 s;
#X obj 85 399 s;
#X obj 58 452 s;
#X msg 130 329 symbol filterA\$1;
#X msg 100 375 symbol smoothingA\$1;
#X msg 73 428 symbol resolutionA\$1;
#X obj 197 231 s;
#X msg 212 208 symbol autorangeA\$1;
#X obj 214 186 s;
#X msg 229 163 symbol minA\$1;
#X obj 257 117 s;
#X msg 271 93 symbol maxA\$1;
#X msg 186 271 symbol denoiseA\$1;
#X connect 0 0 1 0;
#X connect 1 0 6 0;
#X connect 1 1 5 0;
#X connect 1 2 4 0;
#X connect 1 3 3 0;
#X connect 1 4 10 0;
#X connect 1 5 12 0;
#X connect 1 6 14 0;
#X connect 2 0 16 0;
#X connect 2 0 7 0;
#X connect 2 0 8 0;
#X connect 2 0 9 0;
#X connect 2 0 15 0;
#X connect 2 0 13 0;
#X connect 2 0 11 0;
#X connect 7 0 4 1;
#X connect 8 0 5 1;
#X connect 9 0 6 1;
#X connect 11 0 10 1;
#X connect 13 0 12 1;
#X connect 15 0 14 1;
#X connect 16 0 3 1;
#X restore 118 169 pd sendpin;
#N canvas 772 351 523 542 sendpin 0;
#X obj 58 39 inlet;
#X obj 58 68 unpack f f f f f f f;
#X obj 323 348 inlet;
#X obj 172 294 s;
#X obj 116 353 s;
#X obj 85 399 s;
#X obj 58 452 s;
#X msg 130 329 symbol filterA\$1;
#X msg 100 375 symbol smoothingA\$1;
#X msg 73 428 symbol resolutionA\$1;
#X obj 197 231 s;
#X msg 212 208 symbol autorangeA\$1;
#X obj 214 186 s;
#X msg 229 163 symbol minA\$1;
#X obj 257 117 s;
#X msg 271 93 symbol maxA\$1;
#X msg 186 271 symbol denoiseA\$1;
#X connect 0 0 1 0;
#X connect 1 0 6 0;
#X connect 1 1 5 0;
#X connect 1 2 4 0;
#X connect 1 3 3 0;
#X connect 1 4 10 0;
#X connect 1 5 12 0;
#X connect 1 6 14 0;
#X connect 2 0 16 0;
#X connect 2 0 7 0;
#X connect 2 0 8 0;
#X connect 2 0 9 0;
#X connect 2 0 15 0;
#X connect 2 0 13 0;
#X connect 2 0 11 0;
#X connect 7 0 4 1;
#X connect 8 0 5 1;
#X connect 9 0 6 1;
#X connect 11 0 10 1;
#X connect 13 0 12 1;
#X connect 15 0 14 1;
#X connect 16 0 3 1;
#X restore 139 115 pd sendpin;
#X msg 276 87 bang;
#X connect 0 0 8 0;
#X connect 1 0 2 0;
#X connect 1 1 9 0;
#X connect 1 2 10 0;
#X connect 1 3 11 0;
#X connect 3 0 2 1;
#X connect 4 0 9 1;
#X connect 5 0 10 1;
#X connect 6 0 11 1;
#X connect 7 0 6 0;
#X connect 7 0 5 0;
#X connect 7 0 4 0;
#X connect 7 0 3 0;
#X connect 8 1 1 0;
#X connect 12 0 7 0;
#X restore 415 -118 pd analogpin_route;
#X obj 534 -8 zl slice 1;
#X obj 591 13 s status;
#X obj 61 -140 routeOSC /data/D /data/A /raw /status /heartbeat;
#X obj 255 -75 prepend symbol;
#X obj 255 -54 s status;
#X msg 289 -114 ACTIVE;
#X obj 61 -114 s data_digital;
#X obj 61 -201 udpreceive 47123;
#X msg 613 -113 send /pingback \$1;
#X obj 613 -90 s oscdirect;
#X obj 198 -114 route QUIT;
#X obj 198 -84 s quit;
#X obj 386 84 r quit;
#X msg 386 111 \; connection_set 0;
#X obj 455 -140 routeOSC /devinfo/analogpin /reply /ping;
#X obj 534 -51 route status;
#X connect 0 0 15 0;
#X connect 1 0 7 0;
#X connect 1 1 8 0;
#X connect 1 2 9 0;
#X connect 1 3 10 0;
#X connect 2 0 4 0;
#X connect 2 1 3 0;
#X connect 2 2 5 0;
#X connect 2 3 6 0;
#X connect 13 1 14 0;
#X connect 15 0 19 0;
#X connect 15 1 1 0;
#X connect 15 2 2 0;
#X connect 15 3 23 0;
#X connect 15 4 18 0;
#X connect 15 5 27 0;
#X connect 16 0 17 0;
#X connect 18 0 16 0;
#X connect 20 0 0 0;
#X connect 21 0 22 0;
#X connect 23 0 24 0;
#X connect 23 1 16 0;
#X connect 25 0 26 0;
#X connect 27 0 12 0;
#X connect 27 1 28 0;
#X connect 27 2 21 0;
#X connect 28 0 13 0;
#X restore 4 -16 pd OSC-in;
#X restore 837 -1 pd _;
#X text 616 -4 <--------- Remember to sign out;
#X text 577 -37 CONNECT;
#X obj 620 -77 tgl 15 0 auto_update auto_update_set empty 17 7 0 10
-262144 -1 -1 1 1;
#X text 618 -93 AUTO;
